# xmcd
# Copyright (C) 1995-1998 Ti Kan
#
# Track frame offsets:
#       150
#       9733
#       24007
#       38965
#       53231
#       62002
#       78166
#       90248
#       107084
#       122672
#       134375
#
# Disc length: 1951 seconds
#
# Revision: 0
# Processed by: cddbd v1.5.2PL0 Copyright (c) Steve Scherf et al.
# Submitted via: CD-Import v1.0
#
DISCID=7e079d0b
DTITLE=Sahara Hotnights - Jenny Bomb
DYEAR=1900
DGENRE=
TTITLE0=Alright Alright
TTITLE1=Keep Up The Speed
TTITLE2=On Top Of Your World
TTITLE3=Fire Alarm 
TTITLE4=No Big Deal
TTITLE5=With Or Without Control
TTITLE6=Down And Out
TTITLE7=Only The Fakes Survive
TTITLE8=Fall Into Lime
TTITLE9=We're Not Going Down 
TTITLE10=Out Of The System
EXTD=
EXTT0=
EXTT1=
EXTT2=
EXTT3=
EXTT4=
EXTT5=
EXTT6=
EXTT7=
EXTT8=
EXTT9=
EXTT10=
PLAYORDER=
